<svg width="361" height="51" viewBox="0 0 361 51" fill="none" xmlns="http://www.w3.org/2000/svg">
    <g clip-path="url(#clip0_89_8459)">
        <path d="M131.148 22.8338C129.812 22.632 128.686 22.632 127.354 22.632C122.827 22.632 119.827 24.2926 119.827 31.0069V49.7451H110.636V13.9978H119.697V20.2403C121.758 15.788 124.956 14.0626 129.155 14.0626C129.751 14.0626 130.556 14.1275 131.151 14.1995V22.8338H131.148Z" fill="#1C1C1C"/>
        <path d="M167.786 26.2196H158.995C158.262 22.7688 155.064 20.305 151.541 20.305C146.743 20.305 142.945 24.3645 142.945 31.8029C142.945 39.2412 146.541 43.5025 151.606 43.5025C154.8 43.5025 158.064 41.8419 159.327 37.5878H168.121C165.991 47.3532 158.595 50.6131 151.136 50.6131C140.415 50.6131 133.556 42.7677 133.556 31.9397C133.556 21.1118 140.812 13.198 151.537 13.198C159.057 13.198 166.518 17.3872 167.782 26.2232L167.786 26.2196Z" fill="#1C1C1C"/>
        <path d="M182.792 18.7166C184.857 15.0604 188.72 13.1982 193.182 13.1982C201.77 13.1982 205.568 18.3816 205.568 27.2211V49.7451H196.38V29.2131C196.38 24.6312 195.377 20.5789 190.182 20.5789C184.124 20.5789 182.792 25.4921 182.792 31.1402V49.7487H173.601V1.57056H182.792V18.7166Z" fill="#1C1C1C"/>
        <path d="M222.506 5.48953C222.506 8.02181 220.448 10.075 217.91 10.075C215.373 10.075 213.315 8.02181 213.315 5.48953C213.315 2.95725 215.373 0.904053 217.91 0.904053C220.448 0.904053 222.506 2.95725 222.506 5.48953ZM222.506 13.9977V49.745H213.315V13.9977H222.506Z" fill="#1C1C1C"/>
        <path d="M290.258 45.0263C288.194 48.6788 284.262 50.6095 279.797 50.6095C271.209 50.6095 267.743 45.3541 267.743 36.5865V13.9977H276.934V34.5946C276.934 39.3782 277.667 43.2288 282.797 43.2288C288.923 43.2288 290.258 38.2471 290.258 32.5954V13.9941H299.446V49.7414H290.258V45.0227V45.0263Z" fill="#1C1C1C"/>
        <path d="M351.813 28.9464C351.813 25.0237 351.477 20.5751 346.08 20.5751C339.957 20.5751 338.954 25.6865 338.954 31.1365V49.745H329.766V28.9464C329.766 25.0237 329.431 20.5751 324.034 20.5751C317.907 20.5751 316.907 25.6865 316.907 31.1365V49.745H307.716V13.9977H316.907V18.7164C318.972 15.1936 322.568 13.198 326.896 13.198C332.958 13.198 335.69 16.4543 337.084 19.0478C339.954 15.0603 343.477 13.198 348.874 13.198C357.863 13.198 360.993 18.7813 360.993 27.221V49.745H351.805V28.9464H351.813Z" fill="#1C1C1C"/>
        <path d="M106.513 49.7019H96.1812L83.2646 1.58858V1.54175H92.8203L106.513 49.7019Z" fill="#1C1C1C"/>
        <path d="M83.2394 1.54175L83.2646 1.58858L70.3192 49.7019H59.991L73.6837 1.54175H83.2394Z" fill="#1C1C1C"/>
        <path d="M83.2646 1.54175V1.58858L83.2394 1.54175H83.2646Z" fill="#1C1C1C"/>
        <path d="M264.223 13.9941L255.054 49.745H235.823L226.654 13.9941H236.307L245.426 49.6009L254.548 13.9941H264.223Z" fill="#1C1C1C"/>
        <path d="M0 11.7825V0H2.24903V4.16043C2.72194 3.33195 3.66776 2.84566 4.77242 2.84566C6.89149 2.84566 8.58458 4.66473 8.58458 7.41313C8.58458 10.1615 6.859 11.995 4.77242 11.995C3.85909 11.995 2.8158 11.6528 2.24903 10.6802V11.7861H0V11.7825ZM6.22364 7.42754C6.22364 5.72014 5.39334 4.56747 4.22009 4.56747C2.98186 4.56747 2.16961 5.6553 2.16961 7.41313C2.16961 9.17096 2.98547 10.2732 4.22009 10.2732C5.39334 10.2732 6.22364 9.13494 6.22364 7.43114V7.42754Z" fill="#1C1C1C"/>
        <path d="M12.2776 11.7825H10.0286V0H12.2776V11.7825Z" fill="#1C1C1C"/>
        <path d="M16.5447 0V2.08202H14.2957V0H16.5447ZM16.5447 3.04018V11.7861H14.2957V3.04018H16.5447Z" fill="#1C1C1C"/>
        <path d="M20.8116 4.19289C21.317 3.29957 22.2628 2.8457 23.353 2.8457C25.4541 2.8457 26.3818 4.11364 26.3818 6.27491V11.7861H24.1328V6.76479C24.1328 5.64454 23.8873 4.65036 22.6166 4.65036C21.1329 4.65036 20.808 5.85346 20.808 7.23307V11.7825H18.559V3.04022H20.808V4.19289H20.8116Z" fill="#1C1C1C"/>
        <path d="M30.5189 0V6.54863L33.7102 3.03657H36.2336L33.0892 6.38653L36.4141 11.7825H33.8907L31.5947 7.99667L30.5189 9.14935V11.7825H28.2699V0H30.5189Z" fill="#1C1C1C"/>
        <path d="M38.8074 8.02913C38.9374 9.52401 39.9482 10.2552 41.024 10.2552C41.7243 10.2552 42.4066 10.0103 42.8651 9.24664H45.1791C44.7062 10.547 43.4355 11.995 41.042 11.995C38.2226 11.995 36.5801 9.89862 36.5801 7.38075C36.5801 4.86288 38.3887 2.8457 40.9771 2.8457C43.5654 2.8457 45.3596 4.94213 45.2766 8.02913H38.8111H38.8074ZM38.8399 6.48383H42.995C42.9445 5.00697 41.9048 4.48466 40.959 4.48466C40.1107 4.48466 39.0204 5.00697 38.8399 6.48383Z" fill="#1C1C1C"/>
        <path d="M48.9697 4.19289C49.4751 3.29957 50.4209 2.8457 51.5111 2.8457C53.6121 2.8457 54.5399 4.11364 54.5399 6.27491V11.7861H52.2909V6.76479C52.2909 5.64454 52.0454 4.65036 50.7747 4.65036C49.291 4.65036 48.9661 5.85346 48.9661 7.23307V11.7825H46.717V3.04022H48.9661V4.19289H48.9697Z" fill="#1C1C1C"/>
        <path d="M27.9956 21.5118C27.9956 18.4392 30.1797 16.9299 32.3926 16.9299C34.6055 16.9299 36.7896 18.4428 36.7896 21.5118C36.7896 24.5808 34.6055 26.0793 32.3926 26.0793C30.1797 26.0793 27.9956 24.5664 27.9956 21.5118ZM30.2771 21.5118C30.2771 23.3489 31.158 24.3215 32.3962 24.3215C33.6344 24.3215 34.5153 23.3453 34.5153 21.5118C34.5153 19.6783 33.6344 18.6842 32.3962 18.6842C31.158 18.6842 30.2771 19.6747 30.2771 21.5118Z" fill="#1C1C1C"/>
        <path d="M43.2225 19.7539C43.042 19.0226 42.3922 18.5039 41.3489 18.5039C40.5186 18.5039 39.9302 18.8137 39.9302 19.3504C39.9302 19.8223 40.2732 20.1789 41.1035 20.359L42.2767 20.6184C44.0203 21.0074 45.5004 21.4469 45.5004 23.2515C45.5004 25.0562 43.6918 26.0792 41.7063 26.0792C39.5584 26.0792 37.9267 24.9733 37.7173 22.9742H39.8833C40.0132 23.817 40.6017 24.451 41.7713 24.451C42.7496 24.451 43.3525 24.0944 43.3525 23.4604C43.3525 22.8265 42.6846 22.5671 41.9193 22.387L40.6161 22.1096C38.97 21.7674 37.8797 21.0866 37.8797 19.4945C37.8797 17.9024 39.5728 16.8938 41.4645 16.8938C43.3561 16.8938 45.0167 17.7367 45.3236 19.7539H43.2225Z" fill="#1C1C1C"/>
        <path d="M49.7025 26.0793C48.0238 26.0793 46.5437 25.1031 46.5437 23.511C46.5437 21.447 48.8577 20.8274 52.3089 20.4384V20.2943C52.3089 18.9435 51.576 18.4752 50.6627 18.4752C49.7999 18.4752 49.0815 18.9147 49.0346 19.8909H46.9336C47.1141 18.1691 48.5148 16.9011 50.7782 16.9011C52.8468 16.9011 54.5579 17.8125 54.5579 20.7518C54.5579 21.0111 54.5254 22.1998 54.5254 22.9779C54.5254 24.3575 54.6084 25.1391 54.7853 25.8704H52.7168C52.6518 25.593 52.6193 25.222 52.5688 24.7825C51.9334 25.6939 51.0201 26.0829 49.7025 26.0829V26.0793ZM52.3739 21.8684C49.8505 22.1278 48.8541 22.4195 48.8541 23.3957C48.8541 24.0297 49.3415 24.552 50.3703 24.552C51.789 24.552 52.3739 23.8028 52.3739 22.5204V21.872V21.8684Z" fill="#1C1C1C"/>
    </g>
    <defs>
        <clipPath id="clip0_89_8459">
            <rect width="361" height="50.6132" fill="white"/>
        </clipPath>
    </defs>
</svg>
