<svg id="Layer_1" data-name="Layer 1" xmlns="http://www.w3.org/2000/svg" viewBox="0 0 702.1 222.7" fill="#FFFFFF">
    <path d="M356.2,21.5A91.17,91.17,0,0,0,279,65.6a95.09,95.09,0,0,0-12.7,45.1H244.9c.8-39.7,20.9-76.7,56.8-96.5,16-8.9,34.1-13.5,53.8-14Z"/>
    <polygon points="702.1 220.2 676.4 220.2 576.3 46 575 44.7 474.1 218.9 473.4 219.4 448.4 219.4 575 0.6 701.3 219.4 702.1 220.2"/>
    <path d="M209.5,58.7c-11.5-21.6-33.1-40.8-55-50.2C117.1-8,69.2.4,38.9,26.4,4.5,56.2-7.7,101.2,4.8,144.3c10.7,38.2,48.9,71.6,87.9,77.2,42.3,5.9,80-8.4,106.5-41.8C225.3,148.1,229.9,94.6,209.5,58.7Zm-22.6,99.6c-20.4,32.6-56.3,46.4-93,40.5-31.6-5.1-62.4-34.1-69-65.5C18,102,26.7,70.4,48.1,48.3c24.5-25.5,65.5-32.1,97.8-18.8,19.6,7.6,37.9,26.5,46.4,45.8C205.2,100,200.6,135.6,186.9,158.3Z"/>
    <path d="M356.2,66.1c-16.8-.3-31.8,10.4-39.8,24.4a44.08,44.08,0,0,0-5.1,20.1H289.4a66.32,66.32,0,0,1,34.9-58c9.7-4.8,19.9-7.9,31.8-7.9Z"/>
    <path d="M167.3,75.3c-7.4-10.4-18.1-20.6-29.3-25-24.2-11-55.5-5.3-74.1,14-17.3,17.6-24.2,43-16.3,67.2,6.4,22.5,29.6,42.6,52.5,45.9,27,3.8,51.5-7.1,66.7-28.8C181.5,128.7,180.8,95.6,167.3,75.3Zm-20.2,61.6c-11.2,15-29.3,22.4-48.4,17.3-16-4.1-29.8-20.4-31.8-36.7-1.8-18.3,5.9-33.9,20.9-44.1,13.2-8.2,34.9-8.9,47.6.5,7.1,4.3,12,11.7,16.1,18.3C157.3,105.8,156.8,125.4,147.1,136.9Z"/>
    <path d="M650.2,219.4H624.5c-16.6-28.5-32.3-57.3-49.4-85.6l-49.7,85.6-25.5.8L575,90l74.4,128.9Z"/>
    <path d="M422.2,111.4c1.3,24.2-13.3,47.4-34.9,59.1a82.79,82.79,0,0,1-30.5,7.4l-.5-21.4c16-1,31.8-9.7,39.7-24.5,3.1-6.3,5.6-13,5.4-20.6Z"/>
    <path d="M467.3,111.4c-.3,40.7-22.4,79-58.6,98.3a121.83,121.83,0,0,1-51.9,12.7l-.5-21.4c34.6,0,67.2-21.1,81.8-53,4.1-11.7,7.9-23.4,7.9-36.7Z"/>
</svg>