<svg width="20" height="20" xmlns="http://www.w3.org/2000/svg" xml:space="preserve" version="1.1">

 <g>
  <title>Layer 1</title>
  <g id="svg_1">
   <g id="svg_2">
    <path id="svg_3" fill="#000000" d="m18.48,7.52227l-16.95,0l-0.45,0.54l2.16,10.33l0.44,0.36l12.61,0l0.44,-0.36l2.19,-10.33l-0.44,-0.54zm-10.64,5.16l0,-4.26l4.26,0l0,4.26c-0.01,0 -4.26,0 -4.26,0zm4.25,0.9l0,4.26l-4.25,0l0,-4.26l4.25,0zm-5.16,-5.16l0,4.26l-3.95,0l-0.89,-4.26l4.84,0zm-3.76,5.16l3.77,0l0,4.26l-2.88,0l-0.89,-4.26zm12.75,4.26l-2.93,0l0,-4.26l3.83,0l-0.9,4.26zm1.1,-5.16l-4.03,0l0,-4.26l4.93,0l-0.9,4.26z" class="st0"/>
   </g>
   <g id="svg_4">
    <rect id="svg_5" fill="#000000" height="6.45" width="0.91" class="st0" transform="matrix(0.8 -0.6 0.6 0.8 -0.2218 9.233)" y="0.33782" x="12.83664"/>
   </g>
   <g id="svg_6">
    <rect id="svg_7" fill="#000000" height="0.91" width="6.45" class="st0" transform="matrix(0.5996 -0.8003 0.8003 0.5996 -0.5318 8.8408)" y="3.03934" x="5.31491"/>
   </g>
  </g>
 </g>
</svg>