<svg width="30" height="30" xmlns="http://www.w3.org/2000/svg">
 <g>
  <title>Layer 1</title>
  <line transform="rotate(90 27.3542 15)" fill="none" x1="27.35423" y1="-0.34375" x2="27.35423" y2="30.34375" id="svg_9" stroke-width="2" stroke="#000000"/>
  <line fill="none" x1="15" y1="-0.375" x2="15" y2="30.3125" id="svg_11" stroke-width="2" stroke="#000000"/>
  <g id="svg_12">
   <rect fill="#000" stroke="#ffffff" stroke-width="0" x="10" y="10" width="10" height="10" id="svg_4"/>
   <path transform="rotate(-90 15 15)" fill="#000" id="svg_1" d="m11.06256,15c0.52499,0 0.52499,0 0.52499,0c0,0 0.52499,0 0.52499,0c0.52499,0 0.52499,0 0.52499,0c0.52499,0 0.52499,0 0.52499,0c0.52499,0 1.04998,0 1.57497,0c0,0 0.52499,0 1.04998,0c0.52499,0 1.04998,0 1.04998,0c0,0 0.52499,0 0.52499,0c0.52499,0 0.52499,0 1.04998,0l0.52499,0" stroke-width="2" stroke="#eeeeee"/>
   <path fill="#000" id="svg_2" d="m11.06256,15c0.52499,0 0.52499,0 0.52499,0c0,0 0.52499,0 0.52499,0c0.52499,0 0.52499,0 0.52499,0c0.525,0 0.525,0 0.525,0c0.52499,0 1.04998,0 1.57497,0c0,0 0.52499,0 1.04998,0c0.52499,0 1.04999,0 1.04999,0c0,0 0.52499,0 0.52499,0c0.52499,0 0.52499,0 1.04998,0l0.52499,0" stroke-width="2" stroke="#eeeeee"/>
  </g>
 </g>

</svg>