<svg width="20" height="20" xmlns="http://www.w3.org/2000/svg" version="1.1" xml:space="preserve">
 <g>
  <title>Layer 1</title>
  <g stroke="null" id="svg_7">
   <path stroke="null" class="st0" d="m14.17648,11.21445l-2.23074,-0.35692l-0.26769,-0.35692l0,-1.15998l0.26769,-0.35692l2.23074,-0.35692l0.44615,0.35692l0,1.87382l-0.44615,0.35692zm-1.87382,-1.07075l1.5169,0.26769l0,-1.07075l-1.5169,0.26769l0,0.53538z" fill="#FFFFFF" id="svg_1"/>
   <path stroke="null" class="st0" d="m10.42884,8.09142l-1.15998,0l-0.35692,-0.26769l-0.35692,-2.31997l0.35692,-0.44615l1.87382,0l0.35692,0.44615l-0.35692,2.23074l-0.35692,0.35692zm-0.8923,-0.71384l0.53538,0l0.26769,-1.5169l-1.07075,0l0.26769,1.5169z" fill="#FFFFFF" id="svg_2"/>
   <path stroke="null" class="st0" d="m5.43199,11.21445l-0.44615,-0.35692l0,-1.87382l0.44615,-0.35692l2.23074,0.35692l0.26769,0.35692l0,1.15998l-0.26769,0.35692l-2.23074,0.35692zm0.35692,-1.87382l0,1.07075l1.5169,-0.26769l0,-0.53538l-1.5169,-0.26769z" fill="#FFFFFF" id="svg_3"/>
   <path stroke="null" class="st0" d="m10.78576,14.6944l-1.87382,0l-0.35692,-0.44615l0.35692,-2.23074l0.35692,-0.26769l1.15998,0l0.35692,0.26769l0.35692,2.23074l-0.35692,0.44615zm-1.5169,-0.71384l1.07075,0l-0.26769,-1.5169l-0.53538,0l-0.26769,1.5169z" fill="#FFFFFF" id="svg_4"/>
   <path stroke="null" class="st0" d="m12.83804,15.94361c3.30149,-1.69536 4.63994,-5.71069 3.0338,-9.01218c-1.69536,-3.39072 -5.71069,-4.72916 -9.10141,-3.0338s-4.63994,5.71069 -3.0338,9.01218c1.15998,2.31997 3.47995,3.74764 6.06761,3.74764l7.49528,0l0,-0.71384c0,0 -4.46148,0 -4.46148,0m-9.01218,-6.06761c0,-3.30149 2.67689,-6.06761 6.06761,-6.06761c3.30149,0 6.06761,2.67689 6.06761,6.06761c0,3.30149 -2.67689,6.06761 -6.06761,6.06761s-6.06761,-2.67689 -6.06761,-6.06761l0,0" fill="#FFFFFF" id="svg_5"/>
   <circle stroke="null" class="st0" cx="9.80423" cy="9.87601" r="0.71384" fill="#FFFFFF" id="svg_6"/>
  </g>
 </g>

</svg>