<svg width="20" height="20" xmlns="http://www.w3.org/2000/svg" version="1.1" xml:space="preserve">
 <g>
  <title>Layer 1</title>
  <g id="svg_1">
   <path class="st0" d="m15.39141,7.37889l-3.86,-3.99l-0.26,-0.1l-6.32,0l-0.35,0.36l0,12.77l0.35,0.35l10.17,0l0.35,-0.35l0,-8.79l-0.08,-0.25zm-4.08,-3.19l3.28,3.38l-3.28,0c0,0 0,-3.38 0,-3.38zm-5.99,11.87l0,-12.06l5.27,0l0,3.94l0.35,0.35l3.83,0l0,7.77l-9.45,0z" fill="#FFFFFF" id="svg_2"/>
   <rect x="6.70141" y="10.32889" class="st0" width="6.73" height="0.71" fill="#FFFFFF" id="svg_3"/>
   <rect x="6.70141" y="12.07889" class="st0" width="6.73" height="0.71" fill="#FFFFFF" id="svg_4"/>
   <rect x="6.70141" y="13.85889" class="st0" width="6.73" height="0.71" fill="#FFFFFF" id="svg_5"/>
  </g>
 </g>

</svg>