<?xml version="1.0" encoding="utf-8" standalone="yes"?><!-- Generator: Adobe Illustrator 25.2.1, SVG Export Plug-In . SVG Version: 6.00 Build 0)  --><svg xmlns="http://www.w3.org/2000/svg" xmlns:xlink="http://www.w3.org/1999/xlink" version="1.1" id="Layer_1" x="0px" y="0px" viewBox="0 0 22.24 22.24" style="enable-background:new 0 0 22.24 22.24;zoom: 1;" xml:space="preserve"><style type="text/css"><![CDATA[
        .st0{fill:#000000;}
        .st1{fill:#000000;}
]]></style><g><path class="st0" d="M18.31,5.72 l-2.28,-2.19 l-0.31,-0.12 h-1.72 H6.87 H4.2 L3.76,3.86 v14.83 l0.44,0.44 H18 l0.44,-0.44 V6.04 L18.31,5.72 M13.55,4.3 v3.69 H7.31 V4.3 H13.55 M17.55,18.25 H4.65 V4.3 h1.77 v4.14 l0.44,0.44 h7.13 l0.44,-0.44 V4.3 h1.1 l2.02,1.93 V18.25 "></path><path class="st0" d="M6.87,11.72l-0.44,0.44v4.58l0.44,0.44h8.44l0.44-0.44v-4.58l-0.44-0.44H6.87z M14.86,16.3H7.31V12.6h7.55 V16.3z"></path><rect x="11.67" y="5.18" class="st0" width="0.89" height="1.89"></rect></g></svg>