<svg width="20" height="20" xmlns="http://www.w3.org/2000/svg" xml:space="preserve" version="1.1">

 <g>
  <title>Layer 1</title>
  <g id="svg_7">
   <g id="svg_1">
    <path id="svg_2" fill="#FFFFFF" d="m17.13,15.53l-14.27,0l-0.4,-0.4l0,-10.26l0.4,-0.4l14.28,0l0.4,0.4l0,10.26l-0.41,0.4m-13.87,-0.8l13.47,0l0,-9.46l-13.47,0l0,9.46" class="st0"/>
   </g>
   <g id="svg_3">
    <polygon id="svg_4" fill="#FFFFFF" points="4.47999906539917,12.479999542236328 3.929999351501465,11.899999618530273 7.979998588562012,8.049999237060547 8.529998779296875,8.049999237060547 12.179999351501465,11.50999927520752 13.649999618530273,10.109999656677246 14.1899995803833,10.09999942779541 16.100004196166992,11.819999694824219 15.560003280639648,12.40999984741211 13.929998397827148,10.94999885559082 12.44999885559082,12.34999942779541 11.899999618530273,12.34999942779541 8.260000228881836,8.889999389648438 " class="st0"/>
   </g>
   <g id="svg_5">
    <path id="svg_6" fill="#FFFFFF" d="m13.41,8.61c-0.43,0 -0.78,-0.35 -0.78,-0.78c0,-0.43 0.35,-0.78 0.78,-0.78c0.43,0 0.78,0.35 0.78,0.78c-0.01,0.43 -0.36,0.78 -0.78,0.78zm0,-0.81c-0.02,0 -0.03,0.01 -0.03,0.03c0,0.03 0.05,0.03 0.05,0c0,-0.01 -0.01,-0.03 -0.02,-0.03z" class="st0"/>
   </g>
  </g>
 </g>
</svg>
