<svg width="20" height="20" xmlns="http://www.w3.org/2000/svg" xml:space="preserve" version="1.1">

 <g>
  <title>Layer 1</title>
  <g id="svg_1">
   <g id="svg_2">
    <g id="svg_3">
     <path id="svg_4" fill="#FFFFFF" d="m14.11,14.845l-0.56,-0.69c1.31,-1.06 2.06,-2.63 2.06,-4.31s-0.75,-3.25 -2.06,-4.31l0.56,-0.69c1.52,1.23 2.39,3.05 2.39,5c0,1.95 -0.87,3.77 -2.39,5z" class="st0"/>
    </g>
    <g id="svg_5">
     <path id="svg_6" fill="#FFFFFF" d="m12.88,13.015l-0.56,-0.69c0.75,-0.61 1.18,-1.51 1.18,-2.48s-0.43,-1.87 -1.18,-2.48l0.56,-0.69c0.96,0.78 1.51,1.94 1.51,3.17c0,1.23 -0.55,2.39 -1.51,3.17z" class="st0"/>
    </g>
    <g id="svg_7">
     <path id="svg_8" fill="#FFFFFF" d="m15.45,16.615l-0.56,-0.69c1.84,-1.49 2.9,-3.71 2.9,-6.08s-1.06,-4.59 -2.9,-6.08l0.56,-0.69c2.05,1.66 3.23,4.13 3.23,6.77c0.01,2.64 -1.17,5.11 -3.23,6.77z" class="st0"/>
    </g>
   </g>
  </g>
  <g id="svg_9">
   <path id="svg_10" fill="#FFFFFF" class="st0" visibility="visible" d="m10.54,18.385l-4.86,-5.02l-3.97,0l-0.44,-0.44l0,-5.85l0.44,-0.44l3.96,0l4.86,-5.05l0.77,0.31l0,16.18l-0.76,0.31m-8.38,-5.91l3.71,0l0.32,0.14l4.23,4.36l0,-13.98l-4.24,4.39l-0.32,0.14l-3.7,0l0,4.95"/>
  </g>
 </g>
</svg>
