<svg width="20" height="22.24" xmlns="http://www.w3.org/2000/svg" xml:space="preserve" version="1.1">

 <g>
  <title>Layer 1</title>
  <g id="svg_1">
   <path id="svg_2" fill="#FFFFFF" d="m16.25,8.49l-3.86,-3.99l-0.26,-0.1l-6.32,0l-0.35,0.36l0,12.77l0.35,0.35l10.17,0l0.35,-0.35l0,-8.79l-0.08,-0.25zm-4.08,-3.19l3.28,3.38l-3.28,0c0,0 0,-3.38 0,-3.38zm-5.99,11.87l0,-12.06l5.27,0l0,3.94l0.35,0.35l3.83,0l0,7.77l-9.45,0z" class="st0"/>
   <rect id="svg_3" fill="#FFFFFF" height="0.71" width="6.73" class="st0" y="11.44" x="7.56"/>
   <rect id="svg_4" fill="#FFFFFF" height="0.71" width="6.73" class="st0" y="13.19" x="7.56"/>
   <rect id="svg_5" fill="#FFFFFF" height="0.71" width="6.73" class="st0" y="14.97" x="7.56"/>
  </g>
 </g>
</svg>