<svg width="20" height="20" xmlns="http://www.w3.org/2000/svg" xml:space="preserve" version="1.1">

 <g>
  <title>Layer 1</title>
  <g id="svg_7">
   <path id="svg_1" fill="#FFFFFF" d="m14.59021,11.48768l-2.5,-0.4l-0.3,-0.4l0,-1.3l0.3,-0.4l2.5,-0.4l0.5,0.4l0,2.1l-0.5,0.4zm-2.1,-1.2l1.7,0.3l0,-1.2l-1.7,0.3l0,0.6z" class="st0"/>
   <path id="svg_2" fill="#FFFFFF" d="m10.39021,7.98768l-1.3,0l-0.4,-0.3l-0.4,-2.6l0.4,-0.5l2.1,0l0.4,0.5l-0.4,2.5l-0.4,0.4zm-1,-0.8l0.6,0l0.3,-1.7l-1.2,0l0.3,1.7z" class="st0"/>
   <path id="svg_3" fill="#FFFFFF" d="m4.79021,11.48768l-0.5,-0.4l0,-2.1l0.5,-0.4l2.5,0.4l0.3,0.4l0,1.3l-0.3,0.4l-2.5,0.4zm0.4,-2.1l0,1.2l1.7,-0.3l0,-0.6l-1.7,-0.3z" class="st0"/>
   <path id="svg_4" fill="#FFFFFF" d="m10.79021,15.38768l-2.1,0l-0.4,-0.5l0.4,-2.5l0.4,-0.3l1.3,0l0.4,0.3l0.4,2.5l-0.4,0.5zm-1.7,-0.8l1.2,0l-0.3,-1.7l-0.6,0l-0.3,1.7z" class="st0"/>
   <path id="svg_5" fill="#FFFFFF" d="m13.09021,16.78768c3.7,-1.9 5.2,-6.4 3.4,-10.1c-1.9,-3.8 -6.4,-5.3 -10.2,-3.4s-5.2,6.4 -3.4,10.1c1.3,2.6 3.9,4.2 6.8,4.2l8.4,0l0,-0.8c0,0 -5,0 -5,0m-10.1,-6.8c0,-3.7 3,-6.8 6.8,-6.8c3.7,0 6.8,3 6.8,6.8c0,3.7 -3,6.8 -6.8,6.8s-6.8,-3 -6.8,-6.8l0,0" class="st0"/>
   <circle id="svg_6" fill="#FFFFFF" r="0.8" cy="9.98768" cx="9.69021" class="st0"/>
  </g>
 </g>
</svg>
