<svg width="20" height="20" xmlns="http://www.w3.org/2000/svg" version="1.1" xml:space="preserve">
 <g>
  <title>Layer 1</title>
  <g stroke="null" id="svg_1">
   <g stroke="null" id="svg_2">
    <g stroke="null" id="svg_3">
     <path stroke="null" class="st0" d="m13.79944,13.97968l-0.46284,-0.57029c1.08272,-0.87609 1.7026,-2.1737 1.7026,-3.56223s-0.61988,-2.68614 -1.7026,-3.56223l0.46284,-0.57029c1.25629,1.0166 1.97534,2.52084 1.97534,4.13252c0,1.61168 -0.71906,3.11592 -1.97534,4.13252z" fill="#FFFFFF" id="svg_4"/>
    </g>
    <g stroke="null" id="svg_5">
     <path stroke="null" class="st0" d="m12.78284,12.46717l-0.46284,-0.57029c0.61988,-0.50417 0.97527,-1.24802 0.97527,-2.04973s-0.3554,-1.54556 -0.97527,-2.04973l0.46284,-0.57029c0.79344,0.64467 1.24802,1.60342 1.24802,2.62002c0,1.0166 -0.45458,1.97534 -1.24802,2.62002z" fill="#FFFFFF" id="svg_6"/>
    </g>
    <g stroke="null" id="svg_7">
     <path stroke="null" class="st0" d="m14.90696,15.44259l-0.46284,-0.57029c1.52077,-1.23149 2.39686,-3.06633 2.39686,-5.02514s-0.87609,-3.79365 -2.39686,-5.02514l0.46284,-0.57029c1.69433,1.372 2.66961,3.41346 2.66961,5.59543c0.00827,2.18197 -0.96701,4.22343 -2.66961,5.59543z" fill="#FFFFFF" id="svg_8"/>
    </g>
   </g>
  </g>
  <g stroke="null" id="svg_9">
   <path stroke="null" d="m10.19834,16.52293l-3.95774,-4.08804l-3.23297,0l-0.35831,-0.35831l0,-4.76395l0.35831,-0.35831l3.22483,0l3.95774,-4.11247l0.62705,0.25245l0,13.17619l-0.61891,0.25245m-6.82425,-4.81281l3.02124,0l0.26059,0.11401l3.4447,3.55057l0,-11.38461l-3.45284,3.575l-0.26059,0.11401l-3.0131,0l0,4.03103" visibility="visible" class="st0" fill="#FFFFFF" id="svg_10"/>
  </g>
 </g>

</svg>