<?xml version="1.0" encoding="utf-8" standalone="yes"?><!-- Generator: Adobe Illustrator 25.2.1, SVG Export Plug-In . SVG Version: 6.00 Build 0)  --><svg xmlns="http://www.w3.org/2000/svg" xmlns:xlink="http://www.w3.org/1999/xlink" version="1.1" id="Layer_1" x="0px" y="0px" viewBox="0 0 22.24 22.24" style="enable-background:new 0 0 22.24 22.24;zoom: 1;" xml:space="preserve"><style type="text/css"><![CDATA[
        .st0{fill:#000000;}
        .st1{fill:#000000;}
]]></style><g><path class="st0" d="M18.39,16.81 H4.12 l-0.4,-0.4 V6.15 l0.4,-0.4 h14.28 l0.4,0.4 v10.26 L18.39,16.81 M4.52,16.01 h13.47 V6.55 H4.52 V16.01 "></path></g><g><polygon class="st0" points="5.74,13.76 5.19,13.18 9.24,9.33 9.79,9.33 13.44,12.79 14.91,11.39 15.45,11.38 17.36,13.1 16.82,13.69 15.19,12.23 13.71,13.63 13.16,13.63 9.52,10.17"></polygon></g><g><path class="st0" d="M14.67,9.89c-0.43,0-0.78-0.35-0.78-0.78c0-0.43,0.35-0.78,0.78-0.78c0.43,0,0.78,0.35,0.78,0.78 C15.44,9.54,15.09,9.89,14.67,9.89z M14.67,9.08c-0.02,0-0.03,0.01-0.03,0.03c0,0.03,0.05,0.03,0.05,0 C14.69,9.1,14.68,9.08,14.67,9.08z"></path></g></svg>